<mxfile host="app.diagrams.net" agent="Mozilla/5.0 (X11; Ubuntu; Linux x86_64; rv:128.0) Gecko/20100101 Firefox/128.0" version="24.7.6">
  <diagram name="Page-1" id="Joce6e6T_6m52vz_l7Z_">
    <mxGraphModel dx="2194" dy="1058" grid="1" gridSize="10" guides="1" tooltips="1" connect="1" arrows="1" fold="1" page="1" pageScale="1" pageWidth="70" pageHeight="120" math="1" shadow="0">
      <root>
        <mxCell id="0" />
        <mxCell id="1" parent="0" />
        <mxCell id="L7A9VUnb_QCNfGNs0-5k-71" value="" style="group;rotation=0;" vertex="1" connectable="0" parent="1">
          <mxGeometry x="160.00199744863255" y="-252.00349671908634" width="540" height="384.97" as="geometry" />
        </mxCell>
        <mxCell id="L7A9VUnb_QCNfGNs0-5k-144" value="" style="group" vertex="1" connectable="0" parent="L7A9VUnb_QCNfGNs0-5k-71">
          <mxGeometry x="-937.0019974486326" y="30.963496719086322" width="850" height="286.96000000000004" as="geometry" />
        </mxCell>
        <mxCell id="L7A9VUnb_QCNfGNs0-5k-155" value="" style="rounded=0;whiteSpace=wrap;html=1;fillColor=#e6e7e8;strokeColor=none;" vertex="1" parent="L7A9VUnb_QCNfGNs0-5k-144">
          <mxGeometry x="1.63" y="-55.96" width="848.37" height="339.93" as="geometry" />
        </mxCell>
        <mxCell id="L7A9VUnb_QCNfGNs0-5k-118" value="" style="shape=cube;whiteSpace=wrap;html=1;boundedLbl=1;backgroundOutline=1;darkOpacity=0.05;darkOpacity2=0.1;flipH=1;size=116;fillColor=#dae8fc;strokeColor=#6c8ebf;opacity=60;" vertex="1" parent="L7A9VUnb_QCNfGNs0-5k-144">
          <mxGeometry y="-38.959999999999994" width="262.37" height="313.77" as="geometry" />
        </mxCell>
        <mxCell id="L7A9VUnb_QCNfGNs0-5k-90" value="" style="shape=cube;whiteSpace=wrap;html=1;boundedLbl=1;backgroundOutline=1;darkOpacity=0.05;darkOpacity2=0.1;flipH=1;size=70;" vertex="1" parent="L7A9VUnb_QCNfGNs0-5k-144">
          <mxGeometry x="40" y="-12.080000000000005" width="70" height="260" as="geometry" />
        </mxCell>
        <mxCell id="L7A9VUnb_QCNfGNs0-5k-98" value="" style="shape=cube;whiteSpace=wrap;html=1;boundedLbl=1;backgroundOutline=1;darkOpacity=0.05;darkOpacity2=0.1;flipH=1;size=70;fillColor=#e1d5e7;strokeColor=#9673a6;" vertex="1" parent="L7A9VUnb_QCNfGNs0-5k-144">
          <mxGeometry x="60" y="-12.149999999999999" width="70" height="260" as="geometry" />
        </mxCell>
        <mxCell id="L7A9VUnb_QCNfGNs0-5k-99" value="" style="shape=cube;whiteSpace=wrap;html=1;boundedLbl=1;backgroundOutline=1;darkOpacity=0.05;darkOpacity2=0.1;flipH=1;size=70;" vertex="1" parent="L7A9VUnb_QCNfGNs0-5k-144">
          <mxGeometry x="80" y="-12.149999999999999" width="70" height="260" as="geometry" />
        </mxCell>
        <mxCell id="L7A9VUnb_QCNfGNs0-5k-100" value="" style="shape=cube;whiteSpace=wrap;html=1;boundedLbl=1;backgroundOutline=1;darkOpacity=0.05;darkOpacity2=0.1;flipH=1;size=70;fillColor=#e1d5e7;strokeColor=#9673a6;" vertex="1" parent="L7A9VUnb_QCNfGNs0-5k-144">
          <mxGeometry x="100" y="-12.149999999999999" width="70" height="260" as="geometry" />
        </mxCell>
        <mxCell id="L7A9VUnb_QCNfGNs0-5k-101" value="" style="shape=cube;whiteSpace=wrap;html=1;boundedLbl=1;backgroundOutline=1;darkOpacity=0.05;darkOpacity2=0.1;flipH=1;size=70;" vertex="1" parent="L7A9VUnb_QCNfGNs0-5k-144">
          <mxGeometry x="119" y="-12.149999999999999" width="70" height="260" as="geometry" />
        </mxCell>
        <mxCell id="L7A9VUnb_QCNfGNs0-5k-102" value="" style="shape=cube;whiteSpace=wrap;html=1;boundedLbl=1;backgroundOutline=1;darkOpacity=0.05;darkOpacity2=0.1;flipH=1;size=70;fillColor=#e1d5e7;strokeColor=#9673a6;" vertex="1" parent="L7A9VUnb_QCNfGNs0-5k-144">
          <mxGeometry x="140" y="-12.080000000000005" width="70" height="260" as="geometry" />
        </mxCell>
        <mxCell id="L7A9VUnb_QCNfGNs0-5k-147" value="" style="group" vertex="1" connectable="0" parent="L7A9VUnb_QCNfGNs0-5k-144">
          <mxGeometry x="313" y="-18.95999999999998" width="510" height="290" as="geometry" />
        </mxCell>
        <mxCell id="L7A9VUnb_QCNfGNs0-5k-146" value="" style="shape=cube;whiteSpace=wrap;html=1;boundedLbl=1;backgroundOutline=1;darkOpacity=0.05;darkOpacity2=0.1;flipH=1;size=100;fillColor=#dae8fc;strokeColor=#6c8ebf;opacity=60;" vertex="1" parent="L7A9VUnb_QCNfGNs0-5k-147">
          <mxGeometry width="230" height="280" as="geometry" />
        </mxCell>
        <mxCell id="L7A9VUnb_QCNfGNs0-5k-105" value="" style="shape=cube;whiteSpace=wrap;html=1;boundedLbl=1;backgroundOutline=1;darkOpacity=0.05;darkOpacity2=0.1;flipH=1;size=70;" vertex="1" parent="L7A9VUnb_QCNfGNs0-5k-147">
          <mxGeometry x="41.370000000000005" y="25.05923366785865" width="57.647058823529406" height="220.01076633214134" as="geometry" />
        </mxCell>
        <mxCell id="L7A9VUnb_QCNfGNs0-5k-106" value="" style="shape=cube;whiteSpace=wrap;html=1;boundedLbl=1;backgroundOutline=1;darkOpacity=0.05;darkOpacity2=0.1;flipH=1;size=70;fillColor=#e1d5e7;strokeColor=#9673a6;" vertex="1" parent="L7A9VUnb_QCNfGNs0-5k-147">
          <mxGeometry x="57.84058823529415" y="25" width="57.647058823529406" height="220.01076633214134" as="geometry" />
        </mxCell>
        <mxCell id="L7A9VUnb_QCNfGNs0-5k-107" value="" style="shape=cube;whiteSpace=wrap;html=1;boundedLbl=1;backgroundOutline=1;darkOpacity=0.05;darkOpacity2=0.1;flipH=1;size=70;" vertex="1" parent="L7A9VUnb_QCNfGNs0-5k-147">
          <mxGeometry x="74.31117647058824" y="25" width="57.647058823529406" height="220.01076633214134" as="geometry" />
        </mxCell>
        <mxCell id="L7A9VUnb_QCNfGNs0-5k-108" value="" style="shape=cube;whiteSpace=wrap;html=1;boundedLbl=1;backgroundOutline=1;darkOpacity=0.05;darkOpacity2=0.1;flipH=1;size=70;fillColor=#e1d5e7;strokeColor=#9673a6;" vertex="1" parent="L7A9VUnb_QCNfGNs0-5k-147">
          <mxGeometry x="90.78176470588232" y="25" width="57.647058823529406" height="220.01076633214134" as="geometry" />
        </mxCell>
        <mxCell id="L7A9VUnb_QCNfGNs0-5k-109" value="" style="shape=cube;whiteSpace=wrap;html=1;boundedLbl=1;backgroundOutline=1;darkOpacity=0.05;darkOpacity2=0.1;flipH=1;size=70;" vertex="1" parent="L7A9VUnb_QCNfGNs0-5k-147">
          <mxGeometry x="106.42882352941177" y="25" width="57.647058823529406" height="220.01076633214134" as="geometry" />
        </mxCell>
        <mxCell id="L7A9VUnb_QCNfGNs0-5k-110" value="" style="shape=cube;whiteSpace=wrap;html=1;boundedLbl=1;backgroundOutline=1;darkOpacity=0.05;darkOpacity2=0.1;flipH=1;size=70;fillColor=#e1d5e7;strokeColor=#9673a6;" vertex="1" parent="L7A9VUnb_QCNfGNs0-5k-147">
          <mxGeometry x="123.72294117647061" y="25.05923366785865" width="57.647058823529406" height="220.01076633214134" as="geometry" />
        </mxCell>
        <mxCell id="L7A9VUnb_QCNfGNs0-5k-156" value="" style="shape=flexArrow;endArrow=classic;html=1;rounded=0;fillColor=#ffe6cc;strokeColor=#000000;" edge="1" parent="L7A9VUnb_QCNfGNs0-5k-144">
          <mxGeometry width="50" height="50" relative="1" as="geometry">
            <mxPoint x="248" y="151.04000000000002" as="sourcePoint" />
            <mxPoint x="305" y="151.04000000000002" as="targetPoint" />
          </mxGeometry>
        </mxCell>
        <mxCell id="L7A9VUnb_QCNfGNs0-5k-160" value="" style="shape=flexArrow;endArrow=classic;html=1;rounded=0;fillColor=#ffe6cc;strokeColor=#000000;" edge="1" parent="L7A9VUnb_QCNfGNs0-5k-144">
          <mxGeometry width="50" height="50" relative="1" as="geometry">
            <mxPoint x="529" y="151.04000000000002" as="sourcePoint" />
            <mxPoint x="586" y="151.04000000000002" as="targetPoint" />
          </mxGeometry>
        </mxCell>
        <mxCell id="L7A9VUnb_QCNfGNs0-5k-168" value="&lt;b&gt;&lt;font style=&quot;font-size: 18px;&quot;&gt;Capas completamente conectadas&lt;/font&gt;&lt;/b&gt;" style="text;html=1;align=center;verticalAlign=middle;whiteSpace=wrap;rounded=0;" vertex="1" parent="L7A9VUnb_QCNfGNs0-5k-71">
          <mxGeometry x="-70.00199744863255" y="342.00349671908634" width="280" height="30" as="geometry" />
        </mxCell>
        <mxCell id="L7A9VUnb_QCNfGNs0-5k-169" value="&lt;div&gt;&lt;b&gt;&lt;font style=&quot;font-size: 18px;&quot;&gt;Capa de&lt;/font&gt;&lt;/b&gt;&lt;/div&gt;&lt;div&gt;&lt;b&gt;&lt;font style=&quot;font-size: 18px;&quot;&gt;&amp;nbsp;salida&lt;/font&gt;&lt;/b&gt;&lt;/div&gt;" style="text;html=1;align=center;verticalAlign=middle;whiteSpace=wrap;rounded=0;" vertex="1" parent="L7A9VUnb_QCNfGNs0-5k-71">
          <mxGeometry x="240" y="342" width="140" height="30" as="geometry" />
        </mxCell>
        <mxCell id="L7A9VUnb_QCNfGNs0-5k-148" value="" style="shape=cube;whiteSpace=wrap;html=1;boundedLbl=1;backgroundOutline=1;darkOpacity=0.05;darkOpacity2=0.1;flipH=1;size=80;fillColor=#dae8fc;strokeColor=#6c8ebf;opacity=60;" vertex="1" parent="1">
          <mxGeometry x="-175" y="-219.99999999999997" width="160" height="230" as="geometry" />
        </mxCell>
        <mxCell id="L7A9VUnb_QCNfGNs0-5k-37" value="&lt;font style=&quot;font-size: 18px;&quot;&gt;ClasificaciÃ³n&lt;/font&gt;" style="text;html=1;align=center;verticalAlign=middle;resizable=0;points=[];autosize=1;strokeColor=none;fillColor=none;" vertex="1" parent="1">
          <mxGeometry x="178.5" y="-335" width="120" height="40" as="geometry" />
        </mxCell>
        <mxCell id="L7A9VUnb_QCNfGNs0-5k-38" value="" style="group;strokeColor=none;rounded=0;" vertex="1" connectable="0" parent="1">
          <mxGeometry x="106" y="-300" width="265" height="20" as="geometry" />
        </mxCell>
        <mxCell id="L7A9VUnb_QCNfGNs0-5k-39" value="" style="endArrow=none;html=1;rounded=0;" edge="1" parent="L7A9VUnb_QCNfGNs0-5k-38">
          <mxGeometry width="50" height="50" relative="1" as="geometry">
            <mxPoint as="sourcePoint" />
            <mxPoint x="265.00000000000006" as="targetPoint" />
          </mxGeometry>
        </mxCell>
        <mxCell id="L7A9VUnb_QCNfGNs0-5k-40" value="" style="endArrow=none;html=1;rounded=0;" edge="1" parent="L7A9VUnb_QCNfGNs0-5k-38">
          <mxGeometry width="50" height="50" relative="1" as="geometry">
            <mxPoint y="20" as="sourcePoint" />
            <mxPoint as="targetPoint" />
          </mxGeometry>
        </mxCell>
        <mxCell id="L7A9VUnb_QCNfGNs0-5k-41" value="" style="endArrow=none;html=1;rounded=0;" edge="1" parent="L7A9VUnb_QCNfGNs0-5k-38">
          <mxGeometry width="50" height="50" relative="1" as="geometry">
            <mxPoint x="265.00000000000006" y="20" as="sourcePoint" />
            <mxPoint x="265.00000000000006" as="targetPoint" />
          </mxGeometry>
        </mxCell>
        <mxCell id="L7A9VUnb_QCNfGNs0-5k-53" value="" style="group;strokeColor=none;rounded=0;" vertex="1" connectable="0" parent="1">
          <mxGeometry x="409" y="-300" width="115" height="20" as="geometry" />
        </mxCell>
        <mxCell id="L7A9VUnb_QCNfGNs0-5k-54" value="" style="endArrow=none;html=1;rounded=0;" edge="1" parent="L7A9VUnb_QCNfGNs0-5k-53">
          <mxGeometry width="50" height="50" relative="1" as="geometry">
            <mxPoint as="sourcePoint" />
            <mxPoint x="115" as="targetPoint" />
          </mxGeometry>
        </mxCell>
        <mxCell id="L7A9VUnb_QCNfGNs0-5k-55" value="" style="endArrow=none;html=1;rounded=0;" edge="1" parent="L7A9VUnb_QCNfGNs0-5k-53">
          <mxGeometry width="50" height="50" relative="1" as="geometry">
            <mxPoint y="20" as="sourcePoint" />
            <mxPoint as="targetPoint" />
          </mxGeometry>
        </mxCell>
        <mxCell id="L7A9VUnb_QCNfGNs0-5k-56" value="" style="endArrow=none;html=1;rounded=0;" edge="1" parent="L7A9VUnb_QCNfGNs0-5k-53">
          <mxGeometry width="50" height="50" relative="1" as="geometry">
            <mxPoint x="115" y="20" as="sourcePoint" />
            <mxPoint x="115" as="targetPoint" />
          </mxGeometry>
        </mxCell>
        <mxCell id="L7A9VUnb_QCNfGNs0-5k-57" value="&lt;font style=&quot;font-size: 18px;&quot;&gt;PredicciÃ³n&lt;/font&gt;" style="text;html=1;align=center;verticalAlign=middle;resizable=0;points=[];autosize=1;strokeColor=none;fillColor=none;" vertex="1" parent="1">
          <mxGeometry x="411.49555555555554" y="-335" width="110" height="40" as="geometry" />
        </mxCell>
        <mxCell id="L7A9VUnb_QCNfGNs0-5k-79" value="" style="group;strokeColor=none;rounded=0;strokeWidth=1;perimeterSpacing=0;" vertex="1" connectable="0" parent="1">
          <mxGeometry x="-776" y="-300" width="849" height="20" as="geometry" />
        </mxCell>
        <mxCell id="L7A9VUnb_QCNfGNs0-5k-80" value="" style="endArrow=none;html=1;rounded=0;" edge="1" parent="L7A9VUnb_QCNfGNs0-5k-79">
          <mxGeometry width="50" height="50" relative="1" as="geometry">
            <mxPoint as="sourcePoint" />
            <mxPoint x="849.0000000000001" as="targetPoint" />
          </mxGeometry>
        </mxCell>
        <mxCell id="L7A9VUnb_QCNfGNs0-5k-81" value="" style="endArrow=none;html=1;rounded=0;" edge="1" parent="L7A9VUnb_QCNfGNs0-5k-79">
          <mxGeometry width="50" height="50" relative="1" as="geometry">
            <mxPoint y="20" as="sourcePoint" />
            <mxPoint as="targetPoint" />
          </mxGeometry>
        </mxCell>
        <mxCell id="L7A9VUnb_QCNfGNs0-5k-82" value="" style="endArrow=none;html=1;rounded=0;" edge="1" parent="L7A9VUnb_QCNfGNs0-5k-79">
          <mxGeometry width="50" height="50" relative="1" as="geometry">
            <mxPoint x="849.0000000000001" y="20" as="sourcePoint" />
            <mxPoint x="849.0000000000001" as="targetPoint" />
          </mxGeometry>
        </mxCell>
        <mxCell id="L7A9VUnb_QCNfGNs0-5k-84" value="&lt;font style=&quot;font-size: 18px;&quot;&gt;ExtracciÃ³n de caracterÃ­sticas&lt;/font&gt;" style="text;html=1;align=center;verticalAlign=middle;resizable=0;points=[];autosize=1;strokeColor=none;fillColor=none;" vertex="1" parent="1">
          <mxGeometry x="-476.5" y="-335" width="250" height="40" as="geometry" />
        </mxCell>
        <mxCell id="L7A9VUnb_QCNfGNs0-5k-145" value="" style="group" vertex="1" connectable="0" parent="1">
          <mxGeometry x="-136" y="-278" width="190" height="250" as="geometry" />
        </mxCell>
        <mxCell id="L7A9VUnb_QCNfGNs0-5k-149" value="" style="group" vertex="1" connectable="0" parent="L7A9VUnb_QCNfGNs0-5k-145">
          <mxGeometry x="-4" y="85.48" width="90" height="170.07" as="geometry" />
        </mxCell>
        <mxCell id="L7A9VUnb_QCNfGNs0-5k-112" value="" style="shape=cube;whiteSpace=wrap;html=1;boundedLbl=1;backgroundOutline=1;darkOpacity=0.05;darkOpacity2=0.1;flipH=1;size=70;" vertex="1" parent="L7A9VUnb_QCNfGNs0-5k-149">
          <mxGeometry y="0.0457757526819762" width="37.05882352941176" height="170.02422424731802" as="geometry" />
        </mxCell>
        <mxCell id="L7A9VUnb_QCNfGNs0-5k-113" value="" style="shape=cube;whiteSpace=wrap;html=1;boundedLbl=1;backgroundOutline=1;darkOpacity=0.05;darkOpacity2=0.1;flipH=1;size=70;fillColor=#e1d5e7;strokeColor=#9673a6;" vertex="1" parent="L7A9VUnb_QCNfGNs0-5k-149">
          <mxGeometry x="10.588235294117652" width="37.05882352941176" height="170.02422424731802" as="geometry" />
        </mxCell>
        <mxCell id="L7A9VUnb_QCNfGNs0-5k-114" value="" style="shape=cube;whiteSpace=wrap;html=1;boundedLbl=1;backgroundOutline=1;darkOpacity=0.05;darkOpacity2=0.1;flipH=1;size=70;" vertex="1" parent="L7A9VUnb_QCNfGNs0-5k-149">
          <mxGeometry x="21.176470588235304" width="37.05882352941176" height="170.02422424731802" as="geometry" />
        </mxCell>
        <mxCell id="L7A9VUnb_QCNfGNs0-5k-115" value="" style="shape=cube;whiteSpace=wrap;html=1;boundedLbl=1;backgroundOutline=1;darkOpacity=0.05;darkOpacity2=0.1;flipH=1;size=70;fillColor=#e1d5e7;strokeColor=#9673a6;" vertex="1" parent="L7A9VUnb_QCNfGNs0-5k-149">
          <mxGeometry x="31.764705882352928" width="37.05882352941176" height="170.02422424731802" as="geometry" />
        </mxCell>
        <mxCell id="L7A9VUnb_QCNfGNs0-5k-116" value="" style="shape=cube;whiteSpace=wrap;html=1;boundedLbl=1;backgroundOutline=1;darkOpacity=0.05;darkOpacity2=0.1;flipH=1;size=70;" vertex="1" parent="L7A9VUnb_QCNfGNs0-5k-149">
          <mxGeometry x="41.823529411764696" width="37.05882352941176" height="170.02422424731802" as="geometry" />
        </mxCell>
        <mxCell id="L7A9VUnb_QCNfGNs0-5k-117" value="" style="shape=cube;whiteSpace=wrap;html=1;boundedLbl=1;backgroundOutline=1;darkOpacity=0.05;darkOpacity2=0.1;flipH=1;size=70;fillColor=#e1d5e7;strokeColor=#9673a6;" vertex="1" parent="L7A9VUnb_QCNfGNs0-5k-149">
          <mxGeometry x="52.94117647058823" y="0.0457757526819762" width="37.05882352941176" height="170.02422424731802" as="geometry" />
        </mxCell>
        <mxCell id="L7A9VUnb_QCNfGNs0-5k-161" value="" style="shape=flexArrow;endArrow=classic;html=1;rounded=0;fillColor=#ffe6cc;strokeColor=#000000;" edge="1" parent="L7A9VUnb_QCNfGNs0-5k-145">
          <mxGeometry width="50" height="50" relative="1" as="geometry">
            <mxPoint x="133" y="208" as="sourcePoint" />
            <mxPoint x="190" y="208" as="targetPoint" />
          </mxGeometry>
        </mxCell>
        <mxCell id="L7A9VUnb_QCNfGNs0-5k-77" value="" style="rounded=0;whiteSpace=wrap;html=1;fillColor=#e6e7e8;strokeColor=none;" vertex="1" parent="1">
          <mxGeometry x="412.55199744863256" y="-276.93349671908635" width="108.37" height="339.93" as="geometry" />
        </mxCell>
        <mxCell id="L7A9VUnb_QCNfGNs0-5k-76" value="" style="rounded=0;whiteSpace=wrap;html=1;fillColor=#e6e7e8;strokeColor=none;" vertex="1" parent="1">
          <mxGeometry x="105.00199744863255" y="-276.93349671908635" width="266.74" height="339.93" as="geometry" />
        </mxCell>
        <mxCell id="L7A9VUnb_QCNfGNs0-5k-65" value="" style="group;rotation=15;" vertex="1" connectable="0" parent="1">
          <mxGeometry x="441.74199744863256" y="-171.00349671908634" width="50" height="140" as="geometry" />
        </mxCell>
        <mxCell id="L7A9VUnb_QCNfGNs0-5k-64" value="" style="rounded=0;whiteSpace=wrap;html=1;fillColor=#d5e8d4;strokeColor=#82b366;rotation=15;" vertex="1" parent="L7A9VUnb_QCNfGNs0-5k-65">
          <mxGeometry width="50" height="140" as="geometry" />
        </mxCell>
        <mxCell id="L7A9VUnb_QCNfGNs0-5k-11" value="" style="ellipse;whiteSpace=wrap;html=1;aspect=fixed;fillColor=#b3c8cf;rotation=15;" vertex="1" parent="L7A9VUnb_QCNfGNs0-5k-65">
          <mxGeometry x="15" y="12" width="40" height="40" as="geometry" />
        </mxCell>
        <mxCell id="L7A9VUnb_QCNfGNs0-5k-12" value="" style="ellipse;whiteSpace=wrap;html=1;aspect=fixed;fillColor=#b3c8cf;rotation=15;" vertex="1" parent="L7A9VUnb_QCNfGNs0-5k-65">
          <mxGeometry x="-5" y="87" width="40" height="40" as="geometry" />
        </mxCell>
        <mxCell id="L7A9VUnb_QCNfGNs0-5k-66" value="" style="group;rotation=15;fillColor=#fff2cc;strokeColor=#d6b656;" vertex="1" connectable="0" parent="1">
          <mxGeometry x="267.74199744863256" y="-248.00349671908634" width="50" height="285" as="geometry" />
        </mxCell>
        <mxCell id="L7A9VUnb_QCNfGNs0-5k-63" value="" style="rounded=0;whiteSpace=wrap;html=1;fillColor=#fff2cc;strokeColor=#d6b656;rotation=15;" vertex="1" parent="L7A9VUnb_QCNfGNs0-5k-66">
          <mxGeometry width="50" height="285" as="geometry" />
        </mxCell>
        <mxCell id="L7A9VUnb_QCNfGNs0-5k-7" value="" style="ellipse;whiteSpace=wrap;html=1;aspect=fixed;fillColor=#b3c8cf;rotation=15;" vertex="1" parent="L7A9VUnb_QCNfGNs0-5k-66">
          <mxGeometry x="-26" y="240" width="40" height="40" as="geometry" />
        </mxCell>
        <mxCell id="L7A9VUnb_QCNfGNs0-5k-8" value="" style="ellipse;whiteSpace=wrap;html=1;aspect=fixed;fillColor=#b3c8cf;rotation=15;" vertex="1" parent="L7A9VUnb_QCNfGNs0-5k-66">
          <mxGeometry x="-10" y="179" width="40" height="40" as="geometry" />
        </mxCell>
        <mxCell id="L7A9VUnb_QCNfGNs0-5k-9" value="" style="ellipse;whiteSpace=wrap;html=1;aspect=fixed;fillColor=#b3c8cf;rotation=15;" vertex="1" parent="L7A9VUnb_QCNfGNs0-5k-66">
          <mxGeometry x="20" y="68" width="40" height="40" as="geometry" />
        </mxCell>
        <mxCell id="L7A9VUnb_QCNfGNs0-5k-10" value="" style="ellipse;whiteSpace=wrap;html=1;aspect=fixed;fillColor=#b3c8cf;rotation=15;" vertex="1" parent="L7A9VUnb_QCNfGNs0-5k-66">
          <mxGeometry x="35" y="9" width="40" height="40" as="geometry" />
        </mxCell>
        <mxCell id="L7A9VUnb_QCNfGNs0-5k-50" value="" style="endArrow=none;dashed=1;html=1;dashPattern=1 3;strokeWidth=2;rounded=0;" edge="1" parent="L7A9VUnb_QCNfGNs0-5k-66">
          <mxGeometry width="50" height="50" relative="1" as="geometry">
            <mxPoint x="10" y="139" as="sourcePoint" />
            <mxPoint x="39" y="147" as="targetPoint" />
          </mxGeometry>
        </mxCell>
        <mxCell id="L7A9VUnb_QCNfGNs0-5k-67" value="" style="group;rotation=15;" vertex="1" connectable="0" parent="1">
          <mxGeometry x="145.74199744863256" y="-247.00349671908634" width="154" height="285" as="geometry" />
        </mxCell>
        <mxCell id="L7A9VUnb_QCNfGNs0-5k-62" value="" style="rounded=0;whiteSpace=wrap;html=1;fillColor=#fff2cc;strokeColor=#d6b656;rotation=15;" vertex="1" parent="L7A9VUnb_QCNfGNs0-5k-67">
          <mxGeometry width="50" height="285" as="geometry" />
        </mxCell>
        <mxCell id="L7A9VUnb_QCNfGNs0-5k-3" value="" style="ellipse;whiteSpace=wrap;html=1;aspect=fixed;fillColor=#b3c8cf;rotation=15;" vertex="1" parent="L7A9VUnb_QCNfGNs0-5k-67">
          <mxGeometry x="-27" y="239" width="40" height="40" as="geometry" />
        </mxCell>
        <mxCell id="L7A9VUnb_QCNfGNs0-5k-4" value="" style="ellipse;whiteSpace=wrap;html=1;aspect=fixed;fillColor=#b3c8cf;rotation=15;" vertex="1" parent="L7A9VUnb_QCNfGNs0-5k-67">
          <mxGeometry x="-11" y="178" width="40" height="40" as="geometry" />
        </mxCell>
        <mxCell id="L7A9VUnb_QCNfGNs0-5k-5" value="" style="ellipse;whiteSpace=wrap;html=1;aspect=fixed;fillColor=#b3c8cf;rotation=15;" vertex="1" parent="L7A9VUnb_QCNfGNs0-5k-67">
          <mxGeometry x="19" y="67" width="40" height="40" as="geometry" />
        </mxCell>
        <mxCell id="L7A9VUnb_QCNfGNs0-5k-6" value="" style="ellipse;whiteSpace=wrap;html=1;aspect=fixed;fillColor=#b3c8cf;rotation=15;" vertex="1" parent="L7A9VUnb_QCNfGNs0-5k-67">
          <mxGeometry x="35" y="8" width="40" height="40" as="geometry" />
        </mxCell>
        <mxCell id="L7A9VUnb_QCNfGNs0-5k-51" value="" style="endArrow=none;dashed=1;html=1;dashPattern=1 3;strokeWidth=2;rounded=0;" edge="1" parent="L7A9VUnb_QCNfGNs0-5k-67">
          <mxGeometry width="50" height="50" relative="1" as="geometry">
            <mxPoint x="10" y="137" as="sourcePoint" />
            <mxPoint x="39" y="146" as="targetPoint" />
          </mxGeometry>
        </mxCell>
        <mxCell id="L7A9VUnb_QCNfGNs0-5k-13" value="" style="endArrow=none;html=1;rounded=0;entryX=0;entryY=0.5;entryDx=0;entryDy=0;exitX=1;exitY=0.5;exitDx=0;exitDy=0;" edge="1" parent="1" source="L7A9VUnb_QCNfGNs0-5k-6" target="L7A9VUnb_QCNfGNs0-5k-10">
          <mxGeometry width="50" height="50" relative="1" as="geometry">
            <mxPoint x="169.74199744863256" y="-163.00349671908634" as="sourcePoint" />
            <mxPoint x="219.74199744863256" y="-213.00349671908634" as="targetPoint" />
          </mxGeometry>
        </mxCell>
        <mxCell id="L7A9VUnb_QCNfGNs0-5k-14" value="" style="endArrow=none;html=1;rounded=0;entryX=0;entryY=0.5;entryDx=0;entryDy=0;exitX=1;exitY=0.5;exitDx=0;exitDy=0;" edge="1" parent="1" source="L7A9VUnb_QCNfGNs0-5k-6" target="L7A9VUnb_QCNfGNs0-5k-9">
          <mxGeometry width="50" height="50" relative="1" as="geometry">
            <mxPoint x="199.74199744863256" y="-213.00349671908634" as="sourcePoint" />
            <mxPoint x="240.74199744863256" y="-213.00349671908634" as="targetPoint" />
          </mxGeometry>
        </mxCell>
        <mxCell id="L7A9VUnb_QCNfGNs0-5k-15" value="" style="endArrow=none;html=1;rounded=0;entryX=0;entryY=0.5;entryDx=0;entryDy=0;exitX=1;exitY=0.5;exitDx=0;exitDy=0;" edge="1" parent="1" source="L7A9VUnb_QCNfGNs0-5k-6" target="L7A9VUnb_QCNfGNs0-5k-8">
          <mxGeometry width="50" height="50" relative="1" as="geometry">
            <mxPoint x="209.74199744863256" y="-203.00349671908634" as="sourcePoint" />
            <mxPoint x="249.74199744863256" y="-203.00349671908634" as="targetPoint" />
          </mxGeometry>
        </mxCell>
        <mxCell id="L7A9VUnb_QCNfGNs0-5k-16" value="" style="endArrow=none;html=1;rounded=0;entryX=-0.003;entryY=0.521;entryDx=0;entryDy=0;exitX=1;exitY=0.5;exitDx=0;exitDy=0;entryPerimeter=0;" edge="1" parent="1" source="L7A9VUnb_QCNfGNs0-5k-6" target="L7A9VUnb_QCNfGNs0-5k-7">
          <mxGeometry width="50" height="50" relative="1" as="geometry">
            <mxPoint x="219.74199744863256" y="-193.00349671908634" as="sourcePoint" />
            <mxPoint x="229.74199744863256" y="16.996503280913657" as="targetPoint" />
          </mxGeometry>
        </mxCell>
        <mxCell id="L7A9VUnb_QCNfGNs0-5k-17" value="" style="endArrow=none;html=1;rounded=0;entryX=0;entryY=0.5;entryDx=0;entryDy=0;exitX=1;exitY=0.5;exitDx=0;exitDy=0;" edge="1" parent="1" source="L7A9VUnb_QCNfGNs0-5k-5" target="L7A9VUnb_QCNfGNs0-5k-10">
          <mxGeometry width="50" height="50" relative="1" as="geometry">
            <mxPoint x="199.74199744863256" y="-144.00349671908634" as="sourcePoint" />
            <mxPoint x="240.74199744863256" y="-143.00349671908634" as="targetPoint" />
          </mxGeometry>
        </mxCell>
        <mxCell id="L7A9VUnb_QCNfGNs0-5k-18" value="" style="endArrow=none;html=1;rounded=0;exitX=1;exitY=0.5;exitDx=0;exitDy=0;entryX=0;entryY=0.5;entryDx=0;entryDy=0;" edge="1" parent="1" source="L7A9VUnb_QCNfGNs0-5k-5" target="L7A9VUnb_QCNfGNs0-5k-9">
          <mxGeometry width="50" height="50" relative="1" as="geometry">
            <mxPoint x="199.74199744863256" y="-162.00349671908634" as="sourcePoint" />
            <mxPoint x="209.74199744863256" y="-162.00349671908634" as="targetPoint" />
          </mxGeometry>
        </mxCell>
        <mxCell id="L7A9VUnb_QCNfGNs0-5k-19" value="" style="endArrow=none;html=1;rounded=0;entryX=0;entryY=0.5;entryDx=0;entryDy=0;exitX=1;exitY=0.5;exitDx=0;exitDy=0;" edge="1" parent="1" source="L7A9VUnb_QCNfGNs0-5k-5" target="L7A9VUnb_QCNfGNs0-5k-8">
          <mxGeometry width="50" height="50" relative="1" as="geometry">
            <mxPoint x="199.74199744863256" y="-124.00349671908634" as="sourcePoint" />
            <mxPoint x="240.74199744863256" y="-124.00349671908634" as="targetPoint" />
          </mxGeometry>
        </mxCell>
        <mxCell id="L7A9VUnb_QCNfGNs0-5k-20" value="" style="endArrow=none;html=1;rounded=0;entryX=0.005;entryY=0.532;entryDx=0;entryDy=0;exitX=1;exitY=0.5;exitDx=0;exitDy=0;entryPerimeter=0;" edge="1" parent="1" source="L7A9VUnb_QCNfGNs0-5k-5" target="L7A9VUnb_QCNfGNs0-5k-7">
          <mxGeometry width="50" height="50" relative="1" as="geometry">
            <mxPoint x="259.74199744863256" y="-153.00349671908634" as="sourcePoint" />
            <mxPoint x="229.74199744863256" y="16.996503280913657" as="targetPoint" />
          </mxGeometry>
        </mxCell>
        <mxCell id="L7A9VUnb_QCNfGNs0-5k-21" value="" style="endArrow=none;html=1;rounded=0;entryX=0;entryY=0.5;entryDx=0;entryDy=0;exitX=1;exitY=0.5;exitDx=0;exitDy=0;" edge="1" parent="1" source="L7A9VUnb_QCNfGNs0-5k-4" target="L7A9VUnb_QCNfGNs0-5k-10">
          <mxGeometry width="50" height="50" relative="1" as="geometry">
            <mxPoint x="200.74199744863256" y="-63.00349671908634" as="sourcePoint" />
            <mxPoint x="239.74199744863256" y="-64.00349671908634" as="targetPoint" />
          </mxGeometry>
        </mxCell>
        <mxCell id="L7A9VUnb_QCNfGNs0-5k-22" value="" style="endArrow=none;html=1;rounded=0;entryX=0;entryY=0.5;entryDx=0;entryDy=0;exitX=1;exitY=0.5;exitDx=0;exitDy=0;" edge="1" parent="1" source="L7A9VUnb_QCNfGNs0-5k-4" target="L7A9VUnb_QCNfGNs0-5k-9">
          <mxGeometry width="50" height="50" relative="1" as="geometry">
            <mxPoint x="199.74199744863256" y="-49.00349671908634" as="sourcePoint" />
            <mxPoint x="239.74199744863256" y="-49.00349671908634" as="targetPoint" />
          </mxGeometry>
        </mxCell>
        <mxCell id="L7A9VUnb_QCNfGNs0-5k-23" value="" style="endArrow=none;html=1;rounded=0;exitX=1;exitY=0.5;exitDx=0;exitDy=0;entryX=0;entryY=0.5;entryDx=0;entryDy=0;" edge="1" parent="1" source="L7A9VUnb_QCNfGNs0-5k-4" target="L7A9VUnb_QCNfGNs0-5k-8">
          <mxGeometry width="50" height="50" relative="1" as="geometry">
            <mxPoint x="219.74199744863256" y="-32.00349671908634" as="sourcePoint" />
            <mxPoint x="250.74199744863256" y="-7.003496719086343" as="targetPoint" />
          </mxGeometry>
        </mxCell>
        <mxCell id="L7A9VUnb_QCNfGNs0-5k-24" value="" style="endArrow=none;html=1;rounded=0;entryX=-0.003;entryY=0.529;entryDx=0;entryDy=0;exitX=1;exitY=0.5;exitDx=0;exitDy=0;entryPerimeter=0;" edge="1" parent="1" source="L7A9VUnb_QCNfGNs0-5k-4" target="L7A9VUnb_QCNfGNs0-5k-7">
          <mxGeometry width="50" height="50" relative="1" as="geometry">
            <mxPoint x="200.74199744863256" y="-33.00349671908634" as="sourcePoint" />
            <mxPoint x="229.74199744863256" y="16.996503280913657" as="targetPoint" />
          </mxGeometry>
        </mxCell>
        <mxCell id="L7A9VUnb_QCNfGNs0-5k-25" value="" style="endArrow=none;html=1;rounded=0;entryX=0;entryY=0.5;entryDx=0;entryDy=0;exitX=1;exitY=0.5;exitDx=0;exitDy=0;" edge="1" parent="1" target="L7A9VUnb_QCNfGNs0-5k-10" source="L7A9VUnb_QCNfGNs0-5k-3">
          <mxGeometry width="50" height="50" relative="1" as="geometry">
            <mxPoint x="189.74199744863256" y="16.996503280913657" as="sourcePoint" />
            <mxPoint x="239.74199744863256" y="16.996503280913657" as="targetPoint" />
          </mxGeometry>
        </mxCell>
        <mxCell id="L7A9VUnb_QCNfGNs0-5k-26" value="" style="endArrow=none;html=1;rounded=0;entryX=0;entryY=0.5;entryDx=0;entryDy=0;exitX=1;exitY=0.5;exitDx=0;exitDy=0;" edge="1" parent="1" target="L7A9VUnb_QCNfGNs0-5k-9" source="L7A9VUnb_QCNfGNs0-5k-3">
          <mxGeometry width="50" height="50" relative="1" as="geometry">
            <mxPoint x="179.74199744863256" y="7.996503280913657" as="sourcePoint" />
            <mxPoint x="239.74199744863256" y="16.996503280913657" as="targetPoint" />
          </mxGeometry>
        </mxCell>
        <mxCell id="L7A9VUnb_QCNfGNs0-5k-27" value="" style="endArrow=none;html=1;rounded=0;entryX=0;entryY=0.5;entryDx=0;entryDy=0;exitX=1;exitY=0.5;exitDx=0;exitDy=0;" edge="1" parent="1" target="L7A9VUnb_QCNfGNs0-5k-8" source="L7A9VUnb_QCNfGNs0-5k-3">
          <mxGeometry width="50" height="50" relative="1" as="geometry">
            <mxPoint x="189.74199744863256" y="16.996503280913657" as="sourcePoint" />
            <mxPoint x="239.74199744863256" y="16.996503280913657" as="targetPoint" />
          </mxGeometry>
        </mxCell>
        <mxCell id="L7A9VUnb_QCNfGNs0-5k-28" value="" style="endArrow=none;html=1;rounded=0;entryX=0.015;entryY=0.544;entryDx=0;entryDy=0;entryPerimeter=0;exitX=1;exitY=0.5;exitDx=0;exitDy=0;" edge="1" parent="1" source="L7A9VUnb_QCNfGNs0-5k-3" target="L7A9VUnb_QCNfGNs0-5k-7">
          <mxGeometry width="50" height="50" relative="1" as="geometry">
            <mxPoint x="179.74199744863256" y="27.996503280913657" as="sourcePoint" />
            <mxPoint x="229.74199744863256" y="16.996503280913657" as="targetPoint" />
          </mxGeometry>
        </mxCell>
        <mxCell id="L7A9VUnb_QCNfGNs0-5k-29" value="" style="endArrow=none;html=1;rounded=0;entryX=0;entryY=0.5;entryDx=0;entryDy=0;exitX=1;exitY=0.5;exitDx=0;exitDy=0;" edge="1" parent="1" source="L7A9VUnb_QCNfGNs0-5k-10" target="L7A9VUnb_QCNfGNs0-5k-11">
          <mxGeometry width="50" height="50" relative="1" as="geometry">
            <mxPoint x="284.74199744863256" y="-224.00349671908634" as="sourcePoint" />
            <mxPoint x="324.74199744863256" y="-223.00349671908634" as="targetPoint" />
          </mxGeometry>
        </mxCell>
        <mxCell id="L7A9VUnb_QCNfGNs0-5k-30" value="" style="endArrow=none;html=1;rounded=0;entryX=0;entryY=0.5;entryDx=0;entryDy=0;exitX=1;exitY=0.5;exitDx=0;exitDy=0;" edge="1" parent="1" source="L7A9VUnb_QCNfGNs0-5k-10" target="L7A9VUnb_QCNfGNs0-5k-12">
          <mxGeometry width="50" height="50" relative="1" as="geometry">
            <mxPoint x="309.74199744863256" y="-213.00349671908634" as="sourcePoint" />
            <mxPoint x="350.74199744863256" y="-213.00349671908634" as="targetPoint" />
          </mxGeometry>
        </mxCell>
        <mxCell id="L7A9VUnb_QCNfGNs0-5k-31" value="" style="endArrow=none;html=1;rounded=0;entryX=0;entryY=0.5;entryDx=0;entryDy=0;exitX=1;exitY=0.5;exitDx=0;exitDy=0;" edge="1" parent="1" source="L7A9VUnb_QCNfGNs0-5k-9" target="L7A9VUnb_QCNfGNs0-5k-11">
          <mxGeometry width="50" height="50" relative="1" as="geometry">
            <mxPoint x="359.74199744863256" y="-103.00349671908634" as="sourcePoint" />
            <mxPoint x="399.74199744863256" y="-104.00349671908634" as="targetPoint" />
          </mxGeometry>
        </mxCell>
        <mxCell id="L7A9VUnb_QCNfGNs0-5k-32" value="" style="endArrow=none;html=1;rounded=0;entryX=0;entryY=0.5;entryDx=0;entryDy=0;exitX=1;exitY=0.5;exitDx=0;exitDy=0;" edge="1" parent="1" source="L7A9VUnb_QCNfGNs0-5k-9" target="L7A9VUnb_QCNfGNs0-5k-12">
          <mxGeometry width="50" height="50" relative="1" as="geometry">
            <mxPoint x="379.74199744863256" y="-33.00349671908634" as="sourcePoint" />
            <mxPoint x="419.74199744863256" y="-33.00349671908634" as="targetPoint" />
          </mxGeometry>
        </mxCell>
        <mxCell id="L7A9VUnb_QCNfGNs0-5k-33" value="" style="endArrow=none;html=1;rounded=0;entryX=0;entryY=0.5;entryDx=0;entryDy=0;exitX=1;exitY=0.5;exitDx=0;exitDy=0;" edge="1" parent="1" source="L7A9VUnb_QCNfGNs0-5k-8" target="L7A9VUnb_QCNfGNs0-5k-11">
          <mxGeometry width="50" height="50" relative="1" as="geometry">
            <mxPoint x="284.74199744863256" y="-24.003496719086343" as="sourcePoint" />
            <mxPoint x="325.74199744863256" y="-23.003496719086343" as="targetPoint" />
          </mxGeometry>
        </mxCell>
        <mxCell id="L7A9VUnb_QCNfGNs0-5k-34" value="" style="endArrow=none;html=1;rounded=0;entryX=0;entryY=0.5;entryDx=0;entryDy=0;exitX=1;exitY=0.5;exitDx=0;exitDy=0;" edge="1" parent="1" source="L7A9VUnb_QCNfGNs0-5k-8" target="L7A9VUnb_QCNfGNs0-5k-12">
          <mxGeometry width="50" height="50" relative="1" as="geometry">
            <mxPoint x="399.74199744863256" y="-13.003496719086343" as="sourcePoint" />
            <mxPoint x="440.74199744863256" y="-13.003496719086343" as="targetPoint" />
          </mxGeometry>
        </mxCell>
        <mxCell id="L7A9VUnb_QCNfGNs0-5k-35" value="" style="endArrow=none;html=1;rounded=0;entryX=0;entryY=0.5;entryDx=0;entryDy=0;exitX=1;exitY=0.5;exitDx=0;exitDy=0;" edge="1" parent="1" target="L7A9VUnb_QCNfGNs0-5k-12">
          <mxGeometry width="50" height="50" relative="1" as="geometry">
            <mxPoint x="269.74199744863256" y="16.996503280913657" as="sourcePoint" />
            <mxPoint x="450.74199744863256" y="-3.0034967190863426" as="targetPoint" />
          </mxGeometry>
        </mxCell>
        <mxCell id="L7A9VUnb_QCNfGNs0-5k-36" value="" style="endArrow=none;html=1;rounded=0;entryX=0;entryY=0.5;entryDx=0;entryDy=0;exitX=1;exitY=0.5;exitDx=0;exitDy=0;" edge="1" parent="1" target="L7A9VUnb_QCNfGNs0-5k-11">
          <mxGeometry width="50" height="50" relative="1" as="geometry">
            <mxPoint x="269.74199744863256" y="16.996503280913657" as="sourcePoint" />
            <mxPoint x="349.74199744863256" y="26.996503280913657" as="targetPoint" />
          </mxGeometry>
        </mxCell>
        <mxCell id="L7A9VUnb_QCNfGNs0-5k-166" value="&lt;div&gt;&lt;b&gt;&lt;font style=&quot;font-size: 18px;&quot;&gt;Capas convolucionales y&lt;/font&gt;&lt;/b&gt;&lt;/div&gt;&lt;div&gt;&lt;b&gt;&lt;font style=&quot;font-size: 18px;&quot;&gt;&amp;nbsp;capas de agrupamiento&lt;/font&gt;&lt;/b&gt;&lt;/div&gt;" style="text;html=1;align=center;verticalAlign=middle;whiteSpace=wrap;rounded=0;" vertex="1" parent="1">
          <mxGeometry x="-546.5" y="90" width="390" height="30" as="geometry" />
        </mxCell>
      </root>
    </mxGraphModel>
  </diagram>
</mxfile>
